<?xml version="1.0" standalone="no"?>
<!DOCTYPE svg PUBLIC "-//W3C//DTD SVG 20010904//EN"
 "http://www.w3.org/TR/2001/REC-SVG-20010904/DTD/svg10.dtd">
<svg version="1.0" xmlns="http://www.w3.org/2000/svg"
 width="96.000000pt" height="90.000000pt" viewBox="0 0 96.000000 90.000000"
 preserveAspectRatio="xMidYMid meet">

<g transform="translate(0.000000,90.000000) scale(0.100000,-0.100000)"
fill="#000000" stroke="none">
<path d="M407 800 c-105 -27 -206 -112 -254 -215 -24 -52 -28 -72 -28 -150 0
-77 4 -99 28 -151 36 -77 113 -154 192 -191 52 -24 72 -28 150 -28 77 0 99 4
151 28 77 36 154 113 191 192 24 52 28 72 28 150 0 77 -4 99 -28 151 -36 77
-113 154 -190 189 -64 30 -175 41 -240 25z m236 -55 c68 -34 127 -93 164 -165
24 -48 28 -66 28 -145 0 -79 -4 -97 -28 -145 -37 -72 -96 -131 -165 -166 -50
-25 -68 -28 -147 -28 -79 0 -97 3 -147 28 -69 35 -128 94 -165 166 -24 48 -28
66 -28 145 0 79 4 97 28 145 48 94 135 166 231 191 59 16 170 3 229 -26z"/>
<path d="M466 614 c-9 -8 -16 -22 -16 -29 0 -7 7 -21 16 -29 8 -9 22 -16 29
-16 18 0 45 27 45 45 0 18 -27 45 -45 45 -7 0 -21 -7 -29 -16z"/>
<path d="M448 503 c8 -3 12 -37 12 -120 0 -99 -3 -118 -17 -129 -16 -12 -8
-13 52 -13 60 0 68 1 53 13 -15 11 -18 31 -18 135 l0 121 -47 -1 c-27 0 -42
-3 -35 -6z"/>
</g>
</svg>
